<?xml version="1.0" encoding="UTF-8"?>
<svg id="Ebene_1" data-name="Ebene 1" xmlns="http://www.w3.org/2000/svg" version="1.1" viewBox="0 0 109.2 92.5">
  <defs>
    <style>
      .cls-1 {
        stroke-linecap: round;
        stroke-width: 1.5px;
      }

      .cls-1, .cls-2, .cls-3 {
        stroke: #fff;
      }

      .cls-1, .cls-2, .cls-3, .cls-4 {
        stroke-miterlimit: 10;
      }

      .cls-1, .cls-3, .cls-4 {
        fill: none;
      }

      .cls-2 {
        fill: #000;
      }

      .cls-3 {
        stroke-width: 1.9px;
      }

      .cls-4 {
        stroke: #182b3f;
        stroke-width: 2.3px;
      }

      .cls-5 {
        fill: #fff;
        stroke-width: 0px;
      }
    </style>
  </defs>
  <rect class="cls-2" x="-25.1" y="-21.7" width="141.5" height="128.6"/>
  <path class="cls-5" d="M25.6,66.4v-23.4h-6v-20.5c0-4.1,1-7.5,2.9-10.4s4.3-4.3,7.1-4.3v58.6h-4Z"/>
  <path class="cls-5" d="M39.4,59.2v-23.3c-1.3-.4-2.5-1.1-3.4-2.2s-1.4-2.4-1.4-3.8v-13h3.1v13h1.6v-13h3.1v13h1.6v-13h3.1v13c0,1.5-.5,2.7-1.4,3.8s-2,1.8-3.4,2.2v23.3c0,.9-.7,1.6-1.6,1.6h0c-.9,0-1.6-.7-1.6-1.6Z"/>
  <g>
    <rect class="cls-1" x="48.3" y="52.2" width="41.3" height="4.8"/>
    <path class="cls-1" d="M48.3,57c0,5,9.3,9.1,20.7,9.1s20.7-4.1,20.7-9.1"/>
  </g>
  <path class="cls-4" d="M10.8,56.9"/>
  <path class="cls-4" d="M10.8,80.9"/>
  <polyline class="cls-3" points="98.4 78.9 98.4 91.6 10.8 91.6 10.8 78.9"/>
  <path class="cls-4" d="M98.4,80.9"/>
  <path class="cls-4" d="M98.4,56.9"/>
  <polyline class="cls-3" points="10.8 60.9 10.8 .9 98.4 .9 98.4 60.9"/>
  <rect class="cls-5" x="0" y="66.2" width="109.2" height="7.4" rx="3.7" ry="3.7"/>
  <path class="cls-1" d="M66,30.9c2,3,1.7,5,1,6.4-.8,1.5-2.2,2.2-2.4,3.9-.3,1.8.3,3.3,1.5,4.3"/>
  <path class="cls-1" d="M71.3,28.2c2.4,3.2,2.1,6.2,1.4,7.7-.8,1.7-2.2,2.5-2.4,4.3-.3,2,.4,2.7,1.5,3.9"/>
</svg>