<?xml version="1.0" encoding="utf-8"?>
<!-- Generator: Adobe Illustrator 25.3.0, SVG Export Plug-In . SVG Version: 6.00 Build 0)  -->
<svg version="1.1" id="Ebene_1" xmlns="http://www.w3.org/2000/svg" xmlns:xlink="http://www.w3.org/1999/xlink" x="0px" y="0px"
	 viewBox="0 0 275.6 132.3" style="enable-background:new 0 0 275.6 132.3;" xml:space="preserve">
<style type="text/css">
	.st0{fill:#FFFFFF;}
</style>
<g id="Bildmaterial_52_1_">
	<g>
		<rect x="2.2" y="57.7" class="st0" width="25.3" height="25.3"/>
		<rect x="2.2" y="29.9" class="st0" width="25.3" height="25.3"/>
		<rect x="2.2" y="2.1" class="st0" width="25.3" height="25.3"/>
		<rect x="29.9" y="2.1" class="st0" width="25.3" height="25.3"/>
		<rect x="57.7" y="2.1" class="st0" width="25.3" height="25.3"/>
		<rect x="29.9" y="29.9" class="st0" width="25.3" height="25.3"/>
		<rect x="29.9" y="57.7" class="st0" width="25.3" height="25.3"/>
		<rect x="57.7" y="29.9" class="st0" width="25.3" height="25.3"/>
		
			<rect x="59.8" y="62.4" transform="matrix(0.866 -0.5001 0.5001 0.866 -27.801 46.2717)" class="st0" width="25.3" height="25.3"/>
		<g>
			<path class="st0" d="M118.1,41.1l-0.4-3.5h-0.2c-1.5,2.2-4.5,4.1-8.5,4.1c-5.6,0-8.5-4-8.5-8c0-6.7,6-10.4,16.7-10.3v-0.6
				c0-2.3-0.6-6.4-6.3-6.4c-2.6,0-5.3,0.8-7.2,2.1l-1.1-3.3c2.3-1.5,5.6-2.5,9.1-2.5c8.5,0,10.6,5.8,10.6,11.4v10.4
				c0,2.4,0.1,4.8,0.5,6.7H118.1z M117.3,26.9c-5.5-0.1-11.8,0.9-11.8,6.2c0,3.3,2.2,4.8,4.8,4.8c3.6,0,5.9-2.3,6.7-4.6
				c0.2-0.5,0.3-1.1,0.3-1.6V26.9z"/>
			<path class="st0" d="M150.1,40.1c-1.3,0.7-4.2,1.6-8,1.6c-8.4,0-13.8-5.7-13.8-14.2c0-8.5,5.8-14.7,14.9-14.7c3,0,5.6,0.7,7,1.4
				l-1.1,3.9c-1.2-0.7-3.1-1.3-5.8-1.3c-6.4,0-9.8,4.7-9.8,10.5c0,6.4,4.1,10.4,9.6,10.4c2.9,0,4.8-0.7,6.2-1.4L150.1,40.1z"/>
			<path class="st0" d="M175.5,40.1c-1.3,0.7-4.2,1.6-8,1.6c-8.4,0-13.8-5.7-13.8-14.2c0-8.5,5.8-14.7,14.9-14.7c3,0,5.6,0.7,7,1.4
				l-1.1,3.9c-1.2-0.7-3.1-1.3-5.8-1.3c-6.4,0-9.8,4.7-9.8,10.5c0,6.4,4.1,10.4,9.6,10.4c2.9,0,4.8-0.7,6.2-1.4L175.5,40.1z"/>
			<path class="st0" d="M196.7,41.1l-0.4-3.5h-0.2c-1.5,2.2-4.5,4.1-8.5,4.1c-5.6,0-8.5-4-8.5-8c0-6.7,6-10.4,16.7-10.3v-0.6
				c0-2.3-0.6-6.4-6.3-6.4c-2.6,0-5.3,0.8-7.2,2.1l-1.1-3.3c2.3-1.5,5.6-2.5,9.1-2.5c8.5,0,10.5,5.8,10.5,11.4v10.4
				c0,2.4,0.1,4.8,0.5,6.7H196.7z M196,26.9c-5.5-0.1-11.8,0.9-11.8,6.2c0,3.3,2.2,4.8,4.8,4.8c3.6,0,5.9-2.3,6.7-4.6
				c0.2-0.5,0.3-1.1,0.3-1.6V26.9z"/>
			<path class="st0" d="M233,0.4v33.5c0,2.5,0.1,5.3,0.2,7.2h-4.5l-0.2-4.8h-0.1c-1.5,3.1-4.9,5.4-9.5,5.4
				c-6.7,0-11.9-5.7-11.9-14.1c-0.1-9.2,5.7-14.9,12.4-14.9c4.2,0,7.1,2,8.4,4.2h0.1V0.4H233z M227.9,24.6c0-0.6-0.1-1.5-0.2-2.1
				c-0.7-3.2-3.5-5.8-7.3-5.8c-5.2,0-8.3,4.6-8.3,10.7c0,5.6,2.8,10.3,8.2,10.3c3.4,0,6.5-2.2,7.4-6c0.2-0.7,0.2-1.4,0.2-2.2V24.6z"
				/>
			<path class="st0" d="M246.9,5.6c0.1,1.7-1.2,3.1-3.2,3.1c-1.8,0-3-1.4-3-3.1c0-1.8,1.3-3.2,3.2-3.2
				C245.7,2.4,246.9,3.8,246.9,5.6z M241.3,41.1V13.4h5v27.8H241.3z"/>
			<path class="st0" d="M254.1,35.9c1.5,1,4.1,2,6.7,2c3.7,0,5.4-1.8,5.4-4.1c0-2.4-1.4-3.7-5.2-5.1c-5-1.8-7.3-4.5-7.3-7.9
				c0-4.5,3.6-8.1,9.6-8.1c2.8,0,5.3,0.8,6.8,1.7l-1.3,3.7c-1.1-0.7-3.1-1.6-5.7-1.6c-3,0-4.6,1.7-4.6,3.8c0,2.3,1.7,3.3,5.3,4.7
				c4.8,1.8,7.3,4.2,7.3,8.4c0,4.9-3.8,8.3-10.4,8.3c-3,0-5.8-0.7-7.8-1.9L254.1,35.9z"/>
			<path class="st0" d="M103.9,58.3v9.2h10.7v-9.2h2.9v22.1h-2.9V70.1h-10.7v10.4H101V58.3H103.9z"/>
			<path class="st0" d="M136.6,72.4c0,5.9-4.1,8.4-7.9,8.4c-4.3,0-7.6-3.1-7.6-8.2c0-5.3,3.5-8.4,7.9-8.4
				C133.5,64.2,136.6,67.5,136.6,72.4z M124,72.5c0,3.5,2,6.1,4.8,6.1c2.8,0,4.8-2.6,4.8-6.2c0-2.7-1.3-6.1-4.8-6.1
				S124,69.5,124,72.5z"/>
			<path class="st0" d="M151.6,79.8c-0.8,0.4-2.4,0.9-4.6,0.9c-4.8,0-7.9-3.2-7.9-8.1c0-4.9,3.3-8.4,8.5-8.4c1.7,0,3.2,0.4,4,0.8
				l-0.7,2.2c-0.7-0.4-1.8-0.8-3.3-0.8c-3.6,0-5.6,2.7-5.6,6c0,3.7,2.4,5.9,5.5,5.9c1.6,0,2.7-0.4,3.5-0.8L151.6,79.8z"/>
			<path class="st0" d="M154.9,57.1h2.9V67h0.1c0.5-0.8,1.2-1.5,2.1-2c0.9-0.5,1.9-0.8,2.9-0.8c2.1,0,5.5,1.3,5.5,6.8v9.4h-2.9v-9.1
				c0-2.6-1-4.7-3.7-4.7c-1.9,0-3.3,1.3-3.9,2.9c-0.2,0.4-0.2,0.8-0.2,1.4v9.6h-2.9V57.1z"/>
			<path class="st0" d="M172.7,77.5c0.9,0.6,2.4,1.1,3.8,1.1c2.1,0,3.1-1,3.1-2.4c0-1.4-0.8-2.1-2.9-2.9c-2.9-1-4.2-2.6-4.2-4.5
				c0-2.6,2.1-4.7,5.5-4.7c1.6,0,3,0.5,3.9,1l-0.7,2.1c-0.6-0.4-1.8-0.9-3.2-0.9c-1.7,0-2.7,1-2.7,2.2c0,1.3,1,1.9,3,2.7
				c2.8,1,4.2,2.4,4.2,4.8c0,2.8-2.2,4.8-5.9,4.8c-1.7,0-3.3-0.4-4.5-1.1L172.7,77.5z"/>
			<path class="st0" d="M197.4,79.8c-0.8,0.4-2.4,0.9-4.6,0.9c-4.8,0-7.9-3.2-7.9-8.1c0-4.9,3.3-8.4,8.5-8.4c1.7,0,3.2,0.4,4,0.8
				l-0.7,2.2c-0.7-0.4-1.8-0.8-3.3-0.8c-3.6,0-5.6,2.7-5.6,6c0,3.7,2.4,5.9,5.5,5.9c1.6,0,2.7-0.4,3.5-0.8L197.4,79.8z"/>
			<path class="st0" d="M200.8,57.1h2.9V67h0.1c0.5-0.8,1.2-1.5,2.1-2c0.9-0.5,1.9-0.8,2.9-0.8c2.1,0,5.5,1.3,5.5,6.8v9.4h-2.9v-9.1
				c0-2.6-1-4.7-3.7-4.7c-1.9,0-3.3,1.3-3.9,2.9c-0.2,0.4-0.2,0.8-0.2,1.4v9.6h-2.9V57.1z"/>
			<path class="st0" d="M232.2,76.1c0,1.6,0,3.1,0.1,4.3h-2.6l-0.2-2.6h-0.1c-0.8,1.3-2.4,2.9-5.2,2.9c-2.5,0-5.5-1.4-5.5-6.9v-9.3
				h2.9v8.8c0,3,0.9,5,3.5,5c1.9,0,3.3-1.3,3.8-2.6c0.2-0.4,0.3-1,0.3-1.5v-9.7h2.9V76.1z"/>
			<path class="st0" d="M237,57.1h2.9v23.3H237V57.1z"/>
			<path class="st0" d="M246.3,73c0.1,3.9,2.6,5.5,5.4,5.5c2.1,0,3.3-0.4,4.4-0.8l0.5,2.1c-1,0.5-2.8,1-5.3,1c-4.9,0-7.8-3.2-7.8-8
				c0-4.8,2.8-8.6,7.4-8.6c5.2,0,6.6,4.6,6.6,7.5c0,0.6-0.1,1-0.1,1.3H246.3z M254.8,70.9c0-1.8-0.8-4.7-4-4.7
				c-2.9,0-4.2,2.7-4.4,4.7H254.8z"/>
		</g>
		<g>
			<path class="st0" d="M4.2,100.9v8.6c0,3.3,1.5,4.7,3.4,4.7c2.2,0,3.6-1.4,3.6-4.7v-8.6H13v8.5c0,4.5-2.4,6.3-5.5,6.3
				c-3,0-5.2-1.7-5.2-6.2v-8.6H4.2z"/>
			<path class="st0" d="M16.3,107.8c0-1.1,0-2-0.1-2.8h1.7l0.1,1.7h0c0.5-1,1.7-2,3.5-2c1.5,0,3.7,0.9,3.7,4.5v6.3h-1.9v-6
				c0-1.7-0.6-3.1-2.4-3.1c-1.3,0-2.2,0.9-2.6,1.9c-0.1,0.2-0.1,0.6-0.1,0.9v6.3h-1.9V107.8z"/>
			<path class="st0" d="M30.4,102c0,0.6-0.5,1.2-1.2,1.2c-0.7,0-1.1-0.5-1.1-1.2c0-0.7,0.5-1.2,1.2-1.2
				C29.9,100.8,30.4,101.4,30.4,102z M28.3,115.5V105h1.9v10.5H28.3z"/>
			<path class="st0" d="M34.1,105l2.1,5.9c0.3,1,0.6,1.8,0.8,2.7h0.1c0.2-0.9,0.5-1.7,0.9-2.7l2-5.9h2l-4.1,10.5H36L32,105H34.1z"/>
			<path class="st0" d="M44.6,110.6c0,2.6,1.7,3.6,3.6,3.6c1.4,0,2.2-0.2,2.9-0.5l0.3,1.4c-0.7,0.3-1.8,0.6-3.5,0.6
				c-3.2,0-5.2-2.1-5.2-5.3c0-3.2,1.9-5.7,4.9-5.7c3.4,0,4.3,3,4.3,4.9c0,0.4,0,0.7-0.1,0.9H44.6z M50.2,109.2
				c0-1.2-0.5-3.1-2.6-3.1c-1.9,0-2.8,1.8-2.9,3.1H50.2z"/>
			<path class="st0" d="M54.4,108.2c0-1.2,0-2.3-0.1-3.3H56l0.1,2.1h0.1c0.5-1.4,1.6-2.3,2.9-2.3c0.2,0,0.4,0,0.5,0.1v1.8
				c-0.2,0-0.4-0.1-0.7-0.1c-1.3,0-2.3,1-2.6,2.4c0,0.3-0.1,0.6-0.1,0.9v5.6h-1.9V108.2z"/>
			<path class="st0" d="M61.2,113.5c0.6,0.4,1.6,0.8,2.5,0.8c1.4,0,2-0.7,2-1.6c0-0.9-0.5-1.4-1.9-1.9c-1.9-0.7-2.8-1.7-2.8-3
				c0-1.7,1.4-3.1,3.6-3.1c1.1,0,2,0.3,2.6,0.7l-0.5,1.4c-0.4-0.3-1.2-0.6-2.1-0.6c-1.1,0-1.8,0.7-1.8,1.4c0,0.9,0.6,1.3,2,1.8
				c1.8,0.7,2.8,1.6,2.8,3.2c0,1.8-1.4,3.1-3.9,3.1c-1.1,0-2.2-0.3-2.9-0.7L61.2,113.5z"/>
			<path class="st0" d="M72.2,102c0,0.6-0.5,1.2-1.2,1.2c-0.7,0-1.1-0.5-1.1-1.2c0-0.7,0.5-1.2,1.2-1.2
				C71.7,100.8,72.2,101.4,72.2,102z M70.1,115.5V105H72v10.5H70.1z"/>
			<path class="st0" d="M77.4,102v3h2.7v1.5h-2.7v5.7c0,1.3,0.4,2,1.4,2c0.5,0,0.9-0.1,1.1-0.1l0.1,1.4c-0.4,0.2-1,0.3-1.7,0.3
				c-0.9,0-1.6-0.3-2.1-0.8c-0.5-0.6-0.7-1.5-0.7-2.7v-5.7H74V105h1.6v-2.5L77.4,102z"/>
			<path class="st0" d="M83.2,105l2.3,6.2c0.2,0.7,0.5,1.5,0.7,2.1h0c0.2-0.6,0.4-1.4,0.7-2.2L89,105h2l-2.9,7.5
				c-1.4,3.6-2.3,5.4-3.6,6.6c-0.9,0.8-1.9,1.1-2.3,1.2l-0.5-1.6c0.5-0.2,1.1-0.5,1.7-0.9c0.5-0.4,1.2-1.1,1.6-2.1
				c0.1-0.2,0.2-0.3,0.2-0.5s0-0.3-0.1-0.5l-3.9-9.7H83.2z"/>
			<path class="st0" d="M106.8,110.1c0,3.9-2.7,5.6-5.2,5.6c-2.8,0-5-2.1-5-5.4c0-3.5,2.3-5.6,5.2-5.6
				C104.8,104.7,106.8,106.9,106.8,110.1z M98.5,110.2c0,2.3,1.3,4,3.2,4c1.8,0,3.2-1.7,3.2-4.1c0-1.8-0.9-4-3.1-4
				S98.5,108.2,98.5,110.2z"/>
			<path class="st0" d="M109.4,115.5v-9h-1.5V105h1.5v-0.5c0-1.5,0.3-2.8,1.2-3.7c0.7-0.7,1.7-1,2.6-1c0.7,0,1.3,0.2,1.6,0.3
				l-0.3,1.5c-0.3-0.1-0.7-0.2-1.2-0.2c-1.6,0-2,1.4-2,3v0.6h2.5v1.5h-2.5v9H109.4z"/>
			<path class="st0" d="M122.6,110.9l-1.5,4.6h-1.9l5-14.6h2.3l5,14.6h-2l-1.6-4.6H122.6z M127.4,109.4l-1.4-4.2
				c-0.3-1-0.5-1.8-0.8-2.7h0c-0.2,0.9-0.5,1.8-0.7,2.6l-1.4,4.2H127.4z"/>
			<path class="st0" d="M133.3,108.4c0-1.3,0-2.4-0.1-3.4h1.7l0.1,1.8h0c0.8-1.3,2-2,3.7-2c2.5,0,4.4,2.1,4.4,5.3
				c0,3.8-2.3,5.6-4.8,5.6c-1.4,0-2.6-0.6-3.2-1.6h0v5.7h-1.9V108.4z M135.2,111.2c0,0.3,0,0.5,0.1,0.8c0.3,1.3,1.5,2.2,2.9,2.2
				c2,0,3.2-1.6,3.2-4.1c0-2.1-1.1-3.9-3.1-3.9c-1.3,0-2.5,0.9-2.9,2.4c-0.1,0.2-0.1,0.5-0.1,0.8V111.2z"/>
			<path class="st0" d="M145.7,108.4c0-1.3,0-2.4-0.1-3.4h1.7l0.1,1.8h0c0.8-1.3,2-2,3.7-2c2.5,0,4.4,2.1,4.4,5.3
				c0,3.8-2.3,5.6-4.8,5.6c-1.4,0-2.6-0.6-3.2-1.6h0v5.7h-1.9V108.4z M147.6,111.2c0,0.3,0,0.5,0.1,0.8c0.3,1.3,1.5,2.2,2.9,2.2
				c2,0,3.2-1.6,3.2-4.1c0-2.1-1.1-3.9-3.1-3.9c-1.3,0-2.5,0.9-2.9,2.4c-0.1,0.2-0.1,0.5-0.1,0.8V111.2z"/>
			<path class="st0" d="M158,100.1h1.9v15.4H158V100.1z"/>
			<path class="st0" d="M165.2,102c0,0.6-0.5,1.2-1.2,1.2c-0.7,0-1.1-0.5-1.1-1.2c0-0.7,0.5-1.2,1.2-1.2
				C164.8,100.8,165.2,101.4,165.2,102z M163.1,115.5V105h1.9v10.5H163.1z"/>
			<path class="st0" d="M169.2,110.6c0,2.6,1.7,3.6,3.6,3.6c1.4,0,2.2-0.2,2.9-0.5l0.3,1.4c-0.7,0.3-1.8,0.6-3.5,0.6
				c-3.2,0-5.2-2.1-5.2-5.3c0-3.2,1.9-5.7,4.9-5.7c3.4,0,4.3,3,4.3,4.9c0,0.4,0,0.7-0.1,0.9H169.2z M174.8,109.2
				c0-1.2-0.5-3.1-2.6-3.1c-1.9,0-2.8,1.8-2.9,3.1H174.8z"/>
			<path class="st0" d="M188.1,100.1v12.7c0,0.9,0,2,0.1,2.7h-1.7l-0.1-1.8h0c-0.6,1.2-1.9,2.1-3.6,2.1c-2.5,0-4.5-2.1-4.5-5.3
				c0-3.5,2.1-5.6,4.7-5.6c1.6,0,2.7,0.8,3.2,1.6h0v-6.3H188.1z M186.2,109.2c0-0.2,0-0.6-0.1-0.8c-0.3-1.2-1.3-2.2-2.8-2.2
				c-2,0-3.1,1.7-3.1,4.1c0,2.1,1,3.9,3.1,3.9c1.3,0,2.4-0.8,2.8-2.3c0.1-0.3,0.1-0.5,0.1-0.8V109.2z"/>
			<path class="st0" d="M195.7,113.2c0.8,0.5,2.1,1,3.4,1c1.9,0,3.1-1,3.1-2.5c0-1.4-0.8-2.1-2.8-2.9c-2.4-0.8-3.9-2.1-3.9-4.1
				c0-2.3,1.9-4,4.7-4c1.5,0,2.6,0.3,3.2,0.7l-0.5,1.5c-0.5-0.3-1.5-0.7-2.8-0.7c-2,0-2.8,1.2-2.8,2.2c0,1.4,0.9,2,2.9,2.8
				c2.5,1,3.7,2.1,3.7,4.3c0,2.3-1.7,4.2-5.1,4.2c-1.4,0-2.9-0.4-3.7-0.9L195.7,113.2z"/>
			<path class="st0" d="M214.1,115.1c-0.5,0.3-1.6,0.6-3,0.6c-3.2,0-5.2-2.1-5.2-5.4c0-3.2,2.2-5.6,5.6-5.6c1.1,0,2.1,0.3,2.6,0.5
				l-0.4,1.5c-0.5-0.3-1.2-0.5-2.2-0.5c-2.4,0-3.7,1.8-3.7,4c0,2.4,1.6,3.9,3.6,3.9c1.1,0,1.8-0.3,2.3-0.5L214.1,115.1z"/>
			<path class="st0" d="M218.5,102c0,0.6-0.5,1.2-1.2,1.2c-0.7,0-1.1-0.5-1.1-1.2c0-0.7,0.5-1.2,1.2-1.2
				C218,100.8,218.5,101.4,218.5,102z M216.4,115.5V105h1.9v10.5H216.4z"/>
			<path class="st0" d="M222.5,110.6c0,2.6,1.7,3.6,3.6,3.6c1.4,0,2.2-0.2,2.9-0.5l0.3,1.4c-0.7,0.3-1.8,0.6-3.5,0.6
				c-3.2,0-5.2-2.1-5.2-5.3c0-3.2,1.9-5.7,4.9-5.7c3.4,0,4.3,3,4.3,4.9c0,0.4,0,0.7-0.1,0.9H222.5z M228.1,109.2
				c0-1.2-0.5-3.1-2.6-3.1c-1.9,0-2.8,1.8-2.9,3.1H228.1z"/>
			<path class="st0" d="M232.3,107.8c0-1.1,0-2-0.1-2.8h1.7l0.1,1.7h0c0.5-1,1.7-2,3.5-2c1.5,0,3.7,0.9,3.7,4.5v6.3h-1.9v-6
				c0-1.7-0.6-3.1-2.4-3.1c-1.3,0-2.2,0.9-2.6,1.9c-0.1,0.2-0.1,0.6-0.1,0.9v6.3h-1.9V107.8z"/>
			<path class="st0" d="M251.8,115.1c-0.5,0.3-1.6,0.6-3,0.6c-3.2,0-5.2-2.1-5.2-5.4c0-3.2,2.2-5.6,5.6-5.6c1.1,0,2.1,0.3,2.6,0.5
				l-0.4,1.5c-0.5-0.3-1.2-0.5-2.2-0.5c-2.4,0-3.7,1.8-3.7,4c0,2.4,1.6,3.9,3.6,3.9c1.1,0,1.8-0.3,2.3-0.5L251.8,115.1z"/>
			<path class="st0" d="M255,110.6c0,2.6,1.7,3.6,3.6,3.6c1.4,0,2.2-0.2,2.9-0.5l0.3,1.4c-0.7,0.3-1.8,0.6-3.5,0.6
				c-3.2,0-5.2-2.1-5.2-5.3c0-3.2,1.9-5.7,4.9-5.7c3.4,0,4.3,3,4.3,4.9c0,0.4,0,0.7-0.1,0.9H255z M260.6,109.2
				c0-1.2-0.5-3.1-2.6-3.1c-1.9,0-2.8,1.8-2.9,3.1H260.6z"/>
			<path class="st0" d="M264.5,113.5c0.6,0.4,1.6,0.8,2.5,0.8c1.4,0,2-0.7,2-1.6c0-0.9-0.5-1.4-1.9-1.9c-1.9-0.7-2.8-1.7-2.8-3
				c0-1.7,1.4-3.1,3.6-3.1c1.1,0,2,0.3,2.6,0.7l-0.5,1.4c-0.4-0.3-1.2-0.6-2.1-0.6c-1.1,0-1.8,0.7-1.8,1.4c0,0.9,0.6,1.3,2,1.8
				c1.8,0.7,2.8,1.6,2.8,3.2c0,1.8-1.4,3.1-3.9,3.1c-1.1,0-2.2-0.3-2.9-0.7L264.5,113.5z"/>
		</g>
	</g>
</g>
</svg>
