<?xml version="1.0" encoding="utf-8"?>
<!-- Generator: Adobe Illustrator 27.5.0, SVG Export Plug-In . SVG Version: 6.00 Build 0)  -->
<svg version="1.1" id="Ebene_1" xmlns="http://www.w3.org/2000/svg" xmlns:xlink="http://www.w3.org/1999/xlink" x="0px" y="0px"
	 viewBox="0 0 187.5 82.5" style="enable-background:new 0 0 187.5 82.5;" xml:space="preserve">
<style type="text/css">
	.st0{display:none;}
	.st1{display:inline;fill:#F9B122;}
	.st2{display:inline;}
	.st3{fill:#FFFFFF;}
	.st4{fill:#7D7C7D;}
</style>
<g id="Ebene_1_00000041976017767919890450000009036724255387193495_" class="st0">
	<rect x="-0.4" y="-0.6" class="st1" width="283.5" height="141.7"/>
	<g class="st2">
		<rect x="15.4" y="75.1" class="st3" width="17.3" height="17.3"/>
		<rect x="15.4" y="56.1" class="st3" width="17.3" height="17.3"/>
		<rect x="15.4" y="37.1" class="st3" width="17.3" height="17.3"/>
		<rect x="34.5" y="37.1" class="st3" width="17.3" height="17.3"/>
		<rect x="53.6" y="37.1" class="st3" width="17.3" height="17.3"/>
		<rect x="34.5" y="56.1" class="st3" width="17.3" height="17.3"/>
		<rect x="34.5" y="75.1" class="st3" width="17.3" height="17.3"/>
		<rect x="53.6" y="56.1" class="st3" width="17.3" height="17.3"/>
		
			<rect x="54.9" y="78.4" transform="matrix(0.866 -0.5001 0.5001 0.866 -35.0152 43.4527)" class="st3" width="17.3" height="17.3"/>
		<g>
			<path class="st3" d="M94.9,63.8l-0.3-2.4h-0.1c-1,1.5-3.1,2.8-5.8,2.8c-3.8,0-5.8-2.7-5.8-5.5c0-4.6,4-7.1,11.4-7.1v-0.3
				c0-1.6-0.4-4.4-4.4-4.4c-1.8,0-3.6,0.6-4.9,1.5l-0.8-2.2c1.6-1,3.8-1.7,6.3-1.7c5.8,0,7.2,3.9,7.2,7.7v7c0,1.7,0.1,3.3,0.3,4.6
				C98,63.8,94.9,63.8,94.9,63.8z M94.4,54c-3.8,0-8.1,0.7-8.1,4.3c0,2.2,1.5,3.3,3.3,3.3c2.5,0,4-1.6,4.6-3.1
				c0.1-0.3,0.2-0.8,0.2-1.1V54z"/>
			<path class="st3" d="M116.9,63.1c-0.9,0.4-2.9,1.1-5.5,1.1c-5.7,0-9.4-3.9-9.4-9.7s4-10.1,10.2-10.1c2,0,3.8,0.6,4.8,1l-0.8,2.7
				c-0.8-0.4-2.1-0.9-4-0.9c-4.4,0-6.7,3.3-6.7,7.2c0,4.4,2.8,7.1,6.6,7.1c2,0,3.3-0.6,4.3-0.9L116.9,63.1z"/>
			<path class="st3" d="M134.1,63.1c-0.9,0.4-2.9,1.1-5.5,1.1c-5.7,0-9.4-3.9-9.4-9.7s4-10.1,10.2-10.1c2,0,3.8,0.6,4.8,1l-0.8,2.5
				c-0.8-0.4-2.1-0.9-4-0.9c-4.4,0-6.7,3.3-6.7,7.2c0,4.4,2.8,7.1,6.6,7.1c2,0,3.3-0.6,4.3-0.9L134.1,63.1z"/>
			<path class="st3" d="M148.7,63.8l-0.2-2.4h-0.1c-1,1.5-3.1,2.8-5.8,2.8c-3.8,0-5.8-2.7-5.8-5.5c0-4.6,4-7.1,11.4-7.1v-0.3
				c0-1.6-0.4-4.4-4.4-4.4c-1.8,0-3.6,0.6-4.9,1.5l-0.8-2.2c1.6-1,3.8-1.7,6.3-1.7c5.8,0,7.2,3.9,7.2,7.7v7c0,1.7,0.1,3.3,0.3,4.6
				C151.9,63.8,148.7,63.8,148.7,63.8z M148.3,54c-3.8-0.1-8.1,0.6-8.1,4.3c0,2.2,1.5,3.3,3.3,3.3c2.5,0,4-1.6,4.6-3.1
				c0.1-0.3,0.2-0.8,0.2-1.1V54z"/>
			<path class="st3" d="M173.5,35.9v23c0,1.7,0,3.6,0.1,4.9h-3.1l-0.1-3.3h-0.1c-1,2.1-3.4,3.7-6.5,3.7c-4.6,0-8.1-3.9-8.1-9.7
				c0-6.3,3.9-10.2,8.5-10.2c2.9,0,4.8,1.3,5.7,2.9h0.1V35.9H173.5z M170.2,52.5c0-0.4,0-1-0.1-1.5c-0.6-2.2-2.4-4-4.9-4
				c-3.6,0-5.7,3.1-5.7,7.3c0,3.8,1.9,7.1,5.6,7.1c2.4,0,4.5-1.6,5.1-4.2c0.1-0.4,0.1-0.9,0.1-1.5v-3.2
				C170.3,52.5,170.2,52.5,170.2,52.5z"/>
			<path class="st3" d="M183.2,39.4c0,1.1-0.8,2.1-2.2,2.1c-1.2,0-2.1-0.9-2.1-2.1c0-1.2,0.9-2.1,2.1-2.1
				C182.4,37.3,183.2,38.2,183.2,39.4z M179.4,63.8V44.7h3.5v19L179.4,63.8L179.4,63.8z"/>
			<path class="st3" d="M188,60.2c1,0.7,2.8,1.3,4.6,1.3c2.5,0,3.7-1.2,3.7-2.8c0-1.7-1-2.6-3.6-3.5c-3.4-1.2-5.1-3.1-5.1-5.4
				c0-3,2.5-5.6,6.5-5.6c1.9,0,3.6,0.6,4.7,1.2l-0.9,2.5c-0.8-0.4-2.1-1.1-3.9-1.1c-2,0-3.1,1.1-3.1,2.6c0,1.6,1.1,2.2,3.6,3.3
				c3.3,1.2,4.9,2.9,4.9,5.7c0,3.4-2.6,5.7-7.1,5.7c-2.1,0-4-0.6-5.4-1.3L188,60.2z"/>
			<path class="st3" d="M85.1,75.6v15.2h-1.9V75.6H85.1z"/>
			<path class="st3" d="M88.7,82.8c0-1.1,0-2-0.1-2.9h1.8l0.1,1.8l0,0c0.6-1,1.8-2,3.6-2c1.5,0,3.8,0.9,3.8,4.6v6.5h-2v-6.3
				c0-1.8-0.7-3.3-2.5-3.3c-1.3,0-2.4,0.9-2.7,2c-0.1,0.2-0.1,0.6-0.1,0.9v6.5h-2v-7.9h0.1C88.7,82.7,88.7,82.8,88.7,82.8z"/>
			<path class="st3" d="M103.5,76.7v3.1h2.8v1.5h-2.8v5.9c0,1.3,0.3,2.1,1.5,2.1c0.6,0,0.9-0.1,1.1-0.1l0.1,1.5
				c-0.3,0.1-1,0.2-1.8,0.2c-0.9,0-1.7-0.3-2.1-0.8c-0.6-0.6-0.8-1.6-0.8-2.8v-5.9h-1.7v-1.5h1.7v-2.5L103.5,76.7z"/>
			<path class="st3" d="M109.5,85.7c0,2.7,1.8,3.8,3.7,3.8c1.5,0,2.2-0.2,3-0.6l0.3,1.5c-0.7,0.3-1.9,0.7-3.6,0.7
				c-3.4,0-5.4-2.2-5.4-5.5s1.9-5.8,5.1-5.8c3.6,0,4.5,3.1,4.5,5.2c0,0.4,0,0.7-0.1,0.9h-7.5V85.7z M115.3,84.2
				c0-1.2-0.6-3.3-2.7-3.3c-2,0-2.9,1.8-3,3.3H115.3z"/>
			<path class="st3" d="M119.7,83.2c0-1.2,0-2.4-0.1-3.4h1.7l0.1,2.1h0.1c0.4-1.5,1.7-2.4,3-2.4c0.2,0,0.3,0,0.6,0.1v1.9
				c-0.2,0-0.4-0.1-0.7-0.1c-1.3,0-2.4,1-2.7,2.6c0,0.2-0.1,0.6-0.1,0.9v5.8h-1.9V83.2z"/>
			<path class="st3" d="M127.1,82.8c0-1.1,0-2-0.1-2.9h1.8l0.1,1.8l0,0c0.6-1,1.8-2,3.6-2c1.5,0,3.8,0.9,3.8,4.6v6.5h-2v-6.3
				c0-1.8-0.7-3.3-2.5-3.3c-1.3,0-2.4,0.9-2.7,2c-0.1,0.2-0.1,0.6-0.1,0.9v6.5h-2v-7.9h0.1C127.1,82.7,127.1,82.8,127.1,82.8z"/>
			<path class="st3" d="M145.5,90.7l-0.1-1.3h-0.1c-0.6,0.9-1.8,1.6-3.4,1.6c-2.2,0-3.4-1.6-3.4-3.1c0-2.6,2.4-4,6.5-4v-0.2
				c0-0.9-0.2-2.5-2.5-2.5c-1,0-2,0.3-2.8,0.8l-0.4-1.3c0.9-0.6,2.2-1,3.6-1c3.4,0,4.2,2.2,4.2,4.5v4c0,0.9,0,1.9,0.2,2.6
				L145.5,90.7L145.5,90.7z M145.3,85.1c-2.1,0-4.6,0.3-4.6,2.5c0,1.2,0.9,1.9,1.9,1.9c1.5,0,2.4-0.9,2.6-1.8
				c0.1-0.2,0.1-0.4,0.1-0.7V85.1L145.3,85.1z"/>
			<path class="st3" d="M152.7,76.7v3.1h2.8v1.5h-2.8v5.9c0,1.3,0.3,2.1,1.5,2.1c0.6,0,0.9-0.1,1.1-0.1l0.1,1.5
				c-0.3,0.1-1,0.2-1.8,0.2c-0.9,0-1.7-0.3-2.1-0.8c-0.6-0.6-0.8-1.6-0.8-2.8v-5.9H149v-1.5h1.7v-2.5L152.7,76.7z"/>
			<path class="st3" d="M159.8,76.8c0,0.7-0.4,1.2-1.2,1.2c-0.7,0-1.2-0.6-1.2-1.2c0-0.7,0.6-1.2,1.2-1.2
				C159.4,75.6,159.8,76.1,159.8,76.8z M157.6,90.7V79.8h2v10.9C159.6,90.7,157.6,90.7,157.6,90.7z"/>
			<path class="st3" d="M172.7,85.2c0,4-2.8,5.7-5.4,5.7c-2.9,0-5.2-2.1-5.2-5.6c0-3.6,2.4-5.7,5.4-5.7
				C170.6,79.6,172.7,81.9,172.7,85.2z M164.1,85.3c0,2.4,1.3,4.2,3.3,4.2c1.9,0,3.3-1.8,3.3-4.3c0-1.8-0.9-4.2-3.3-4.2
				C165.1,81.1,164.1,83.2,164.1,85.3z"/>
			<path class="st3" d="M175.2,82.8c0-1.1,0-2-0.1-2.9h1.8l0.1,1.8l0,0c0.6-1,1.8-2,3.6-2c1.5,0,3.8,0.9,3.8,4.6v6.5h-2v-6.3
				c0-1.8-0.7-3.3-2.5-3.3c-1.3,0-2.4,0.9-2.7,2c-0.1,0.2-0.1,0.6-0.1,0.9v6.5h-2v-7.9h0.1L175.2,82.8L175.2,82.8z"/>
			<path class="st3" d="M193.7,90.7l-0.1-1.3h-0.1c-0.6,0.9-1.8,1.6-3.4,1.6c-2.2,0-3.4-1.6-3.4-3.1c0-2.6,2.4-4,6.5-4v-0.2
				c0-0.9-0.2-2.5-2.5-2.5c-1,0-2,0.3-2.8,0.8l-0.4-1.3c0.9-0.6,2.2-1,3.6-1c3.4,0,4.2,2.2,4.2,4.5v4c0,0.9,0,1.9,0.2,2.6
				L193.7,90.7L193.7,90.7z M193.4,85.1c-2.1,0-4.6,0.3-4.6,2.5c0,1.2,0.9,1.9,1.9,1.9c1.5,0,2.4-0.9,2.6-1.8
				c0.1-0.2,0.1-0.4,0.1-0.7V85.1z"/>
			<path class="st3" d="M198.5,74.8h2v15.9h-2V74.8z"/>
			<path class="st3" d="M208.3,88.4c0.9,0.6,2.1,1,3.5,1c2,0,3.1-1,3.1-2.6c0-1.5-0.8-2.2-2.8-3c-2.5-0.9-4-2.1-4-4.3
				c0-2.4,1.9-4.2,4.9-4.2c1.6,0,2.7,0.3,3.4,0.8l-0.6,1.6c-0.4-0.2-1.5-0.7-2.9-0.7c-2,0-2.8,1.2-2.8,2.2c0,1.5,0.9,2.1,3,2.9
				c2.6,1,3.8,2.2,3.8,4.5c0,2.4-1.7,4.4-5.3,4.4c-1.5,0-3-0.4-3.8-1L208.3,88.4z"/>
			<path class="st3" d="M227.5,90.3c-0.6,0.2-1.7,0.7-3.1,0.7c-3.3,0-5.4-2.2-5.4-5.5c0-3.4,2.2-5.7,5.8-5.7c1.1,0,2.2,0.3,2.7,0.6
				l-0.4,1.6c-0.4-0.2-1.2-0.6-2.2-0.6c-2.5,0-3.8,1.8-3.8,4.2c0,2.5,1.6,4,3.8,4c1.1,0,1.9-0.3,2.5-0.6L227.5,90.3z"/>
			<path class="st3" d="M229.8,74.8h2v6.7l0,0c0.3-0.6,0.8-1,1.5-1.3c0.6-0.3,1.2-0.6,2-0.6c1.5,0,3.8,0.9,3.8,4.6v6.5h-2v-6.3
				c0-1.8-0.7-3.3-2.5-3.3c-1.2,0-2.2,0.9-2.7,2c-0.1,0.2-0.1,0.6-0.1,0.9v6.5h-2V74.8z"/>
			<path class="st3" d="M252.1,85.2c0,4-2.8,5.7-5.4,5.7c-2.9,0-5.2-2.1-5.2-5.6c0-3.6,2.4-5.7,5.4-5.7
				C250,79.6,252.1,81.9,252.1,85.2z M243.5,85.3c0,2.4,1.3,4.2,3.3,4.2s3.3-1.8,3.3-4.3c0-1.8-0.9-4.2-3.3-4.2
				C244.5,81.1,243.5,83.2,243.5,85.3z"/>
			<path class="st3" d="M264.4,85.2c0,4-2.8,5.7-5.4,5.7c-2.9,0-5.2-2.1-5.2-5.6c0-3.6,2.4-5.7,5.4-5.7S264.4,81.9,264.4,85.2z
				 M255.8,85.3c0,2.4,1.3,4.2,3.3,4.2c1.9,0,3.3-1.8,3.3-4.3c0-1.8-0.9-4.2-3.3-4.2C256.8,81.1,255.8,83.2,255.8,85.3z"/>
			<path class="st3" d="M266.9,74.8h2v15.9h-2V74.8z"/>
		</g>
	</g>
</g>
<g id="Ebene_3">
	<g id="accadis_Bildung_weiss_00000022542748431118092390000004830299966238109077_">
		<g>
			<g>
				<rect y="40.1" class="st4" width="17.6" height="17.6"/>
				<rect y="20.7" class="st4" width="17.6" height="17.6"/>
				<rect y="1.3" class="st4" width="17.6" height="17.6"/>
				<rect x="19.4" y="1.3" class="st4" width="17.6" height="17.6"/>
				<rect x="38.7" y="1.3" class="st4" width="17.6" height="17.6"/>
				<rect x="19.4" y="20.7" class="st4" width="17.6" height="17.6"/>
				<rect x="19.4" y="40.1" class="st4" width="17.6" height="17.6"/>
				<rect x="38.7" y="20.7" class="st4" width="17.6" height="17.6"/>
				
					<rect x="40.3" y="43.2" transform="matrix(0.866 -0.5001 0.5001 0.866 -19.4208 31.5231)" class="st4" width="17.6" height="17.6"/>
				<g>
					<path class="st4" d="M80.9,28.5l-0.2-2.4h-0.1c-1.1,1.5-3.2,2.8-6,2.8c-3.9,0-6-2.7-6-5.5c0-4.7,4.2-7.2,11.6-7.2v-0.3
						c0-1.6-0.5-4.5-4.4-4.5c-1.8,0-3.6,0.6-5.1,1.5l-0.8-2.4c1.6-1,3.9-1.7,6.3-1.7c6,0,7.3,4.1,7.3,7.9v7.2c0,1.7,0.1,3.4,0.3,4.6
						C83.8,28.5,80.9,28.5,80.9,28.5z M80.4,18.6c-3.8-0.1-8.1,0.6-8.1,4.4c0,2.3,1.5,3.4,3.4,3.4c2.6,0,4.1-1.6,4.7-3.3
						c0.1-0.3,0.2-0.8,0.2-1.1L80.4,18.6L80.4,18.6z"/>
					<path class="st4" d="M103.3,27.8c-0.9,0.5-2.9,1.1-5.5,1.1c-5.9,0-9.7-3.9-9.7-9.8c0-6,4.1-10.3,10.4-10.3c2.1,0,3.9,0.6,4.9,1
						l-0.8,2.7c-0.9-0.5-2.1-0.9-4.1-0.9c-4.4,0-6.9,3.3-6.9,7.3c0,4.5,2.8,7.2,6.8,7.2c2,0,3.4-0.6,4.3-1L103.3,27.8z"/>
					<path class="st4" d="M121,27.8c-0.9,0.5-2.9,1.1-5.5,1.1c-5.9,0-9.7-3.9-9.7-9.8c0-6,4.1-10.3,10.4-10.3c2.1,0,3.9,0.6,4.9,1
						l-0.8,2.7c-0.9-0.5-2.1-0.9-4.1-0.9c-4.4,0-6.9,3.3-6.9,7.3c0,4.5,2.8,7.2,6.8,7.2c2,0,3.4-0.6,4.3-1L121,27.8z"/>
					<path class="st4" d="M135.9,28.5l-0.2-2.4h-0.1c-1.1,1.5-3.2,2.8-6,2.8c-3.9,0-6-2.7-6-5.5c0-4.7,4.2-7.2,11.6-7.2v-0.3
						c0-1.6-0.5-4.5-4.4-4.5c-1.8,0-3.6,0.6-5.1,1.5l-0.8-2.4c1.6-1,3.9-1.7,6.3-1.7c6,0,7.3,4.1,7.3,7.9v7.2c0,1.7,0.1,3.4,0.3,4.6
						C138.8,28.5,135.9,28.5,135.9,28.5z M135.3,18.6c-3.8-0.1-8.1,0.6-8.1,4.4c0,2.3,1.5,3.4,3.4,3.4c2.6,0,4.1-1.6,4.7-3.3
						c0.1-0.3,0.2-0.8,0.2-1.1L135.3,18.6L135.3,18.6z"/>
					<path class="st4" d="M161,0v23.4c0,1.7,0.1,3.6,0.1,5.1h-3.2l-0.1-3.4h-0.1c-1.1,2.1-3.5,3.8-6.7,3.8c-4.7,0-8.3-3.9-8.3-9.8
						c-0.1-6.4,3.9-10.4,8.7-10.4c2.9,0,5,1.4,5.9,2.9h0.1V0H161z M157.6,17c0-0.5-0.1-1-0.1-1.5c-0.6-2.3-2.4-4.1-5.1-4.1
						c-3.6,0-5.9,3.2-5.9,7.4c0,3.9,1.9,7.2,5.8,7.2c2.4,0,4.5-1.6,5.2-4.2c0.1-0.5,0.1-1,0.1-1.5V17L157.6,17z"/>
					<path class="st4" d="M170.8,3.8c0.1,1.1-0.9,2.1-2.3,2.1c-1.2,0-2.1-1-2.1-2.1c0-1.2,0.9-2.3,2.3-2.3S170.8,2.4,170.8,3.8z
						 M166.9,28.5V9.2h3.5v19.3H166.9z"/>
					<path class="st4" d="M175.8,24.9c1,0.7,2.8,1.4,4.6,1.4c2.6,0,3.8-1.4,3.8-2.8c0-1.7-1-2.6-3.6-3.5c-3.5-1.2-5.1-3.2-5.1-5.5
						c0-3.2,2.6-5.6,6.7-5.6c1.9,0,3.6,0.6,4.7,1.1l-0.9,2.6c-0.8-0.5-2.1-1.1-3.9-1.1c-2.1,0-3.3,1.1-3.3,2.6
						c0,1.6,1.1,2.4,3.6,3.3c3.4,1.4,5.1,2.9,5.1,5.9c0,3.4-2.6,5.9-7.2,5.9c-2.1,0-4.1-0.6-5.4-1.4L175.8,24.9z"/>
					<path class="st4" d="M69.1,40.6c0.9-0.2,2.3-0.3,3.6-0.3c1.9,0,3.3,0.3,4.3,1.1c0.8,0.6,1.4,1.5,1.4,2.7c0,1.5-1,2.8-2.6,3.4
						v0.1c1.5,0.3,3.2,1.6,3.2,3.8c0,1.4-0.6,2.4-1.4,3c-1,1-2.8,1.5-5.4,1.5c-1.4,0-2.4-0.1-3-0.2L69.1,40.6L69.1,40.6z M71,47.1
						h1.8c2.1,0,3.4-1.1,3.4-2.6c0-1.8-1.4-2.5-3.4-2.5c-0.9,0-1.5,0.1-1.8,0.1V47.1z M71,54.4c0.3,0.1,1,0.1,1.7,0.1
						c2,0,3.9-0.8,3.9-3c0-2.1-1.8-2.9-3.9-2.9h-1.6L71,54.4L71,54.4z"/>
					<path class="st4" d="M83.5,41.8c0,0.7-0.5,1.2-1.4,1.2c-0.7,0-1.2-0.6-1.2-1.2c0-0.7,0.6-1.2,1.2-1.2
						C83.1,40.5,83.5,41,83.5,41.8z M81.3,55.9V44.8h2v11.1H81.3L81.3,55.9z"/>
					<path class="st4" d="M86.7,39.6h2v16.2h-2V39.6z"/>
					<path class="st4" d="M101.7,39.6V53c0,1,0,2.1,0.1,2.8H100l-0.1-1.9h-0.1C99.2,55.1,97.9,56,96,56c-2.7,0-4.7-2.3-4.7-5.6
						c0-3.6,2.3-6,5-6c1.7,0,2.8,0.8,3.4,1.7h0.1v-6.7h2L101.7,39.6L101.7,39.6z M99.7,49.3c0-0.2,0-0.6-0.1-0.9
						C99.3,47,98.2,46,96.8,46c-2.1,0-3.4,1.8-3.4,4.3c0,2.3,1.1,4.1,3.3,4.1c1.4,0,2.6-0.9,2.9-2.4c0.1-0.2,0.1-0.6,0.1-0.9
						C99.7,51.1,99.7,49.3,99.7,49.3z"/>
					<path class="st4" d="M114.2,52.9c0,1.1,0,2.1,0.1,3h-1.8l-0.1-1.7h-0.1c-0.6,0.9-1.7,2-3.6,2c-1.8,0-3.8-1-3.8-4.9v-6.4h2V51
						c0,2.1,0.7,3.5,2.5,3.5c1.4,0,2.3-0.9,2.7-1.8c0.1-0.3,0.2-0.7,0.2-1v-6.8h2L114.2,52.9L114.2,52.9z"/>
					<path class="st4" d="M117.6,47.9c0-1.1,0-2.1-0.1-3h1.8l0.1,1.8h0.1c0.6-1,1.8-2.1,3.6-2.1c1.5,0,3.9,0.9,3.9,4.7V56h-2v-6.4
						c0-1.8-0.7-3.3-2.6-3.3c-1.4,0-2.4,0.9-2.7,2c-0.1,0.2-0.1,0.6-0.1,0.9v6.7h-2L117.6,47.9L117.6,47.9z"/>
					<path class="st4" d="M139.8,44.8c-0.1,0.8-0.1,1.7-0.1,3v6.4c0,2.6-0.6,4.1-1.6,5.1s-2.6,1.4-4.1,1.4c-1.4,0-2.8-0.3-3.6-0.9
						l0.6-1.5c0.7,0.5,1.9,0.9,3.3,0.9c2,0,3.6-1,3.6-3.8v-1.2h-0.1c-0.6,1-1.8,1.8-3.5,1.8c-2.7,0-4.7-2.4-4.7-5.4
						c0-3.7,2.4-5.9,5-5.9c1.9,0,2.9,1,3.5,1.9h0.1l0.1-1.7h1.7v-0.1H139.8z M137.7,49.2c0-0.3,0-0.7-0.1-0.9
						c-0.3-1.1-1.4-2.1-2.8-2.1c-1.9,0-3.3,1.6-3.3,4.2c0,2.1,1.1,3.9,3.3,3.9c1.2,0,2.4-0.8,2.8-2c0.1-0.3,0.1-0.7,0.1-1V49.2z"/>
				</g>
			</g>
		</g>
	</g>
</g>
</svg>
